<?xml version="1.0" encoding="UTF-8" standalone="no"?>
<svg
   fill="none"
   height="21.499901"
   stroke-width="1.5"
   viewBox="0 0 21.299999 21.499901"
   width="21.299999"
   version="1.1"
   id="svg22"
   sodipodi:docname="cookie_icon.svg"
   inkscape:version="1.1.2 (0a00cf5339, 2022-02-04)"
   xmlns:inkscape="http://www.inkscape.org/namespaces/inkscape"
   xmlns:sodipodi="http://sodipodi.sourceforge.net/DTD/sodipodi-0.dtd"
   xmlns="http://www.w3.org/2000/svg"
   xmlns:svg="http://www.w3.org/2000/svg">
  <defs
     id="defs26" />
  <sodipodi:namedview
     id="namedview24"
     pagecolor="#ffffff"
     bordercolor="#666666"
     borderopacity="1.0"
     inkscape:pageshadow="2"
     inkscape:pageopacity="0.0"
     inkscape:pagecheckerboard="0"
     showgrid="false"
     fit-margin-top="0"
     fit-margin-left="0"
     fit-margin-right="0"
     fit-margin-bottom="0"
     inkscape:zoom="12.359637"
     inkscape:cx="-3.8836091"
     inkscape:cy="9.1022089"
     inkscape:window-width="1920"
     inkscape:window-height="1048"
     inkscape:window-x="1366"
     inkscape:window-y="32"
     inkscape:window-maximized="1"
     inkscape:current-layer="svg22" />
  <path
     d="m 20.55,12.7499 c -0.9266,4.5645 -4.9621,8 -9.8,8 -5.52285,0 -10,-4.4771 -10,-10 0,-5.18531 3.94668,-9.44886 9,-9.95058"
     stroke="currentColor"
     stroke-linecap="round"
     stroke-linejoin="round"
     id="path2"
     style="stroke:#fef0eb;stroke-opacity:1" />
  <path
     d="m 5.25,8.75 c -0.27614,0 -0.5,-0.22386 -0.5,-0.5 0,-0.27614 0.22386,-0.5 0.5,-0.5 0.27614,0 0.5,0.22386 0.5,0.5 0,0.27614 -0.22386,0.5 -0.5,0.5 z"
     stroke="currentColor"
     stroke-linecap="round"
     stroke-linejoin="round"
     id="path4"
     style="stroke:#fef0eb;stroke-opacity:1" />
  <path
     d="m 19.25,2.75 c -0.2761,0 -0.5,-0.22386 -0.5,-0.5 0,-0.27614 0.2239,-0.5 0.5,-0.5 0.2761,0 0.5,0.22386 0.5,0.5 0,0.27614 -0.2239,0.5 -0.5,0.5 z"
     stroke="currentColor"
     stroke-linecap="round"
     stroke-linejoin="round"
     id="path6"
     style="stroke:#fef0eb;stroke-opacity:1" />
  <path
     d="m 10.75,17.75 c -0.5523,0 -1,-0.4477 -1,-1 0,-0.5523 0.4477,-1 1,-1 0.5523,0 1,0.4477 1,1 0,0.5523 -0.4477,1 -1,1 z"
     stroke="currentColor"
     stroke-linecap="round"
     stroke-linejoin="round"
     id="path8"
     style="stroke:#fef0eb;stroke-opacity:1" />
  <path
     d="M 5.75,13.76 5.76,13.7489"
     stroke="currentColor"
     stroke-linecap="round"
     stroke-linejoin="round"
     id="path10"
     style="stroke:#fef0eb;stroke-opacity:1" />
  <path
     d="m 15.75,13.76 0.01,-0.0111"
     stroke="currentColor"
     stroke-linecap="round"
     stroke-linejoin="round"
     id="path12"
     style="stroke:#fef0eb;stroke-opacity:1" />
  <path
     d="M 9.75,10.76 9.76,10.7489"
     stroke="currentColor"
     stroke-linecap="round"
     stroke-linejoin="round"
     id="path14"
     style="stroke:#fef0eb;stroke-opacity:1" />
  <path
     d="M 19.75,7.76 19.76,7.74889"
     stroke="currentColor"
     stroke-linecap="round"
     stroke-linejoin="round"
     id="path16"
     style="stroke:#fef0eb;stroke-opacity:1" />
  <path
     d="M 15.75,4.76 15.76,4.74889"
     stroke="currentColor"
     stroke-linecap="round"
     stroke-linejoin="round"
     id="path18"
     style="stroke:#fef0eb;stroke-opacity:1" />
  <path
     d="m 9.75,0.75 c -0.5,1.5 0.4999,3 2.0855,3 -2.0855,3.5 -0.0855,7 4.9145,6.5 0,2.5 2.5,3 3.6998,2.5136"
     stroke="currentColor"
     stroke-linecap="round"
     stroke-linejoin="round"
     id="path20"
     style="stroke:#fef0eb;stroke-opacity:1" />
</svg>
