<?xml version="1.0" encoding="UTF-8" standalone="no"?>
<svg
   enable-background="new 0 0 512 512"
   version="1.1"
   viewBox="0 0 339.60001 338.90399"
   xml:space="preserve"
   id="svg16"
   sodipodi:docname="delivery_icon.svg"
   width="339.60001"
   height="338.90399"
   inkscape:version="1.1.2 (0a00cf5339, 2022-02-04)"
   xmlns:inkscape="http://www.inkscape.org/namespaces/inkscape"
   xmlns:sodipodi="http://sodipodi.sourceforge.net/DTD/sodipodi-0.dtd"
   xmlns="http://www.w3.org/2000/svg"
   xmlns:svg="http://www.w3.org/2000/svg"><defs
     id="defs20" /><sodipodi:namedview
     id="namedview18"
     pagecolor="#ffffff"
     bordercolor="#666666"
     borderopacity="1.0"
     inkscape:pageshadow="2"
     inkscape:pageopacity="0.0"
     inkscape:pagecheckerboard="0"
     showgrid="false"
     fit-margin-top="0"
     fit-margin-left="0"
     fit-margin-right="0"
     fit-margin-bottom="0"
     inkscape:zoom="1.158716"
     inkscape:cx="136.35783"
     inkscape:cy="126.43305"
     inkscape:window-width="1920"
     inkscape:window-height="1048"
     inkscape:window-x="1366"
     inkscape:window-y="32"
     inkscape:window-maximized="1"
     inkscape:current-layer="svg16" /><g
     id="Layer_1"
     transform="translate(-82.486086,-121.44653)" /><path
     d="m 315.7,120.002 c -1.4,-2 -3.7,-3.2 -6.1,-3.2 H 263.1 V 97.001999 c 0,-4.1 -3.4,-7.5 -7.5,-7.5 H 87.1 c -4.1,0 -7.5,3.4 -7.5,7.5 V 218.202 c 0,4.1 3.4,7.5 7.5,7.5 h 21.2 c 3.9,13.6 16.5,23.7 31.3,23.7 14.8,0 27.4,-10 31.3,-23.7 H 254 c 3.9,13.6 16.5,23.7 31.3,23.7 14.8,0 27.4,-10 31.3,-23.7 h 15.5 c 4.1,0 7.5,-3.4 7.5,-7.5 v -61.7 c 0,-1.6 -0.5,-3.1 -1.4,-4.3 z m 9,38.7 h -33.6 v -26.8 h 14.7 z m -230.1,-54.1 h 153.5 v 106.2 h -76.5 c -2.9,-15.1 -16.1,-26.5 -32,-26.5 -15.9,0 -29.2,11.4 -32,26.5 h -13 z m 45,129.8 c -9.7,0 -17.6,-7.9 -17.6,-17.6 0,-9.7 7.9,-17.6 17.6,-17.6 9.7,0 17.6,7.9 17.6,17.6 0,9.7 -7.9,17.6 -17.6,17.6 z m 145.8,0 c -9.7,0 -17.6,-7.9 -17.6,-17.6 0,-9.7 7.9,-17.6 17.6,-17.6 9.7,0 17.6,7.9 17.6,17.6 0,9.7 -7.9,17.6 -17.6,17.6 z m 32,-23.6 c -2.9,-15.1 -16.1,-26.5 -32,-26.5 -8.6,0 -16.5,3.4 -22.3,8.9 v -61.3 H 276 v 34.3 c 0,4.1 3.4,7.5 7.5,7.5 h 41.3 v 37.1 z"
     id="path3"
     style="fill:#fef0eb;fill-opacity:1" /><path
     d="M 7.5,104.602 H 61 c 4.1,0 7.5,-3.4 7.5,-7.500001 0,-4.1 -3.4,-7.5 -7.5,-7.5 H 7.5 c -4.1,0 -7.5,3.4 -7.5,7.5 C 0,101.202 3.4,104.602 7.5,104.602 Z"
     id="path5"
     style="fill:#fef0eb;fill-opacity:1" /><path
     d="M 61,116.902 H 19.8 c -4.1,0 -7.5,3.4 -7.5,7.5 0,4.1 3.4,7.5 7.5,7.5 H 61 c 4.1,0 7.5,-3.4 7.5,-7.5 0,-4.1 -3.3,-7.5 -7.5,-7.5 z"
     id="path7"
     style="fill:#fef0eb;fill-opacity:1" /><path
     d="M 61,144.202 H 35 c -4.1,0 -7.5,3.4 -7.5,7.5 0,4.1 3.4,7.5 7.5,7.5 h 26 c 4.1,0 7.5,-3.4 7.5,-7.5 0,-4.1 -3.3,-7.5 -7.5,-7.5 z"
     id="path9"
     style="fill:#fef0eb;fill-opacity:1" /><path
     d="m 61,171.502 h -9 c -4.1,0 -7.5,3.4 -7.5,7.5 0,4.1 3.4,7.5 7.5,7.5 h 9 c 4.1,0 7.5,-3.4 7.5,-7.5 0,-4.1 -3.3,-7.5 -7.5,-7.5 z"
     id="path11"
     style="fill:#fef0eb;fill-opacity:1" /></svg>
