<?xml version="1.0" encoding="UTF-8"?>
<!-- Created with Inkscape (http://www.inkscape.org/) -->
<svg width="115.47mm" height="37.877mm" version="1.1" viewBox="0 0 115.47 37.877" xmlns="http://www.w3.org/2000/svg">
 <g transform="translate(-15.765 -54.561)" fill="#f96939" stroke-width="1.6366">
  <path d="m21.406 54.561c-1.5101-0.0082-2.8759 0.41872-4.0983 1.7682-0.93983 1.0414-1.5426 2.4584-1.5426 3.8301 0 2.6722 1.4092 5.4432 4.8952 5.4432 1.6499 0.06857 2.7129-0.79078 3.01-1.0666 0.63618-0.59071 1.0026-1.3909 1.1224-1.6844-0.64382 0.75386-1.5281 1.2577-2.5007 1.4248-2.0395 0.34789-4.0302-0.83928-4.7107-2.8092-0.68022-1.97 0.1486-4.1475 1.9612-5.1525 1.3193-0.72475 3.1706-0.65675 4.1277-0.16039 0.68581 0.35562 1.1938 0.86355 1.524 1.524 0.43183 0.88901 0.74948 2.578 0.95268 5.0672 0.2286 3.1243 0.2034 6.4645-0.07594 10.021-0.30482 3.9117-1.6006 6.1597-3.8867 6.7439v0.83794c2.5147 0.02602 4.6738 0.03797 6.4773 0.03797 1.905 0.07627 3.6451 0.31761 5.22 0.72401 1.6002 0.43183 3.2766 1.1434 5.0293 2.134 1.0414 0.5842 2.1336 1.3587 3.2766 2.3239 1.143 0.96525 2.0952 1.8034 2.8573 2.5146 0.76203 0.71121 1.6513 1.334 2.6673 1.8674 1.0415 0.53342 2.0698 0.78735 3.0859 0.762 1.7273-0.0509 3.0357-0.82609 3.9247-2.3247 0.7873-1.4478 0.85096-2.8702 0.19016-4.2673-0.81272-1.8034-2.5024-2.7305-5.0679-2.7813 0.30488 1.9304-0.30467 3.0486-1.8286 3.3534-1.9813 0.4064-4.7883-0.54659-8.4206-2.858-3.3275-2.1082-5.1305-5.1308-5.4099-9.0679-0.25398-3.0989-0.24141-6.4391 0.03797-10.021 0.30482-4.0387 1.6006-6.3504 3.8867-6.9346v-0.83794c-1.7526 0.2286-3.315 0.39378-4.6866 0.49533-1.3462 0.07626-2.8449 0.08887-4.496 0.03797-1.6256-0.07626-3.1754-0.26647-4.6487-0.57127-1.0097-0.20955-1.9674-0.36946-2.8735-0.37363z"/>
  <path d="m59.763 69.112q0 2.5909-0.95266 4.7245-0.95245 2.1336-2.5527 3.5053-1.6002 1.3335-3.5814 2.0574-1.9814 0.72393-4.1149 0.76201-1.6765 0-3.3149-0.41911-1.6002-0.4572-3.0481-1.4097-1.4097-0.95253-2.4766-2.2861-1.0668-1.3335-1.7145-3.2767-0.60963-1.9812-0.60963-4.2673 0-2.6289 0.95253-4.7626 0.95251-2.1718 2.5146-3.5053 1.6002-1.3716 3.5434-2.1336 1.9812-0.762 4.1148-0.762 2.1717-0.03797 4.1149 0.68581 1.9814 0.7239 3.5816 2.1336 1.6002 1.4097 2.5527 3.7339 0.9907 2.3242 0.9907 5.2198zm-11.24-10.63q-1.143 0.07626-1.9431 2.7814-0.80011 2.667-0.8382 7.4678-0.03797 3.2005 0.381 5.6008 0.41912 2.4004 1.0287 3.5434 0.64771 1.1049 1.4098 1.143 0.72385 0.03797 1.3334-0.99063 0.64778-1.0668 1.067-3.391 0.41897-2.3622 0.45722-5.6008 0-2.5528-0.22862-4.6483-0.2286-2.0955-0.64778-3.3529-0.41918-1.2954-0.95245-1.9431-0.53348-0.68581-1.067-0.60961z"/>
  <path d="m83.652 69.112q0 2.5909-0.95245 4.7245-0.95264 2.1336-2.5529 3.5053-1.6002 1.3335-3.5814 2.0574-1.9814 0.72393-4.1149 0.76201-1.6765 0-3.3148-0.41911-1.6002-0.4572-3.0481-1.4097-1.4097-0.95253-2.4766-2.2861-1.0667-1.3335-1.7145-3.2767-0.60955-1.9812-0.60955-4.2673 0-2.6289 0.95246-4.7626 0.95264-2.1718 2.5146-3.5053 1.6002-1.3716 3.5434-2.1336 1.9814-0.762 4.1149-0.762 2.1717-0.03797 4.1151 0.68581 1.9812 0.7239 3.5814 2.1336 1.6002 1.4097 2.5527 3.7339 0.99068 2.3242 0.99068 5.2198zm-11.24-10.63q-1.143 0.07626-1.9431 2.7814-0.80011 2.667-0.83813 7.4678-0.03715 3.2005 0.38093 5.6008 0.41918 2.4004 1.0287 3.5434 0.64778 1.1049 1.4099 1.143 0.72383 0.03797 1.3334-0.99063 0.64778-1.0668 1.067-3.391 0.41916-2.3622 0.4572-5.6008 0-2.5528-0.2286-4.6483t-0.64778-3.3529q-0.41918-1.2954-0.95245-1.9431-0.53348-0.68581-1.067-0.60961z"/>
  <path d="m82.738 57.643q6.5913 0 11.887 0v6.4772q1.3336-3.5434 3.2385-5.2198 1.9431-1.7145 3.9625-1.524 2.667 0.22862 4.4958 3.5434 2.0574 3.772 1.5242 8.3441-0.68582 5.6389-5.2579 8.4584-3.1624 1.9813-7.8868 2.1336 0 1.9813 0.03715 4.0387v4.3816q-5.4104 0-12.002-0.03797v-0.80011q3.4291-0.91443 3.8863-6.9725 0.19016-2.1336 0.19016-7.5059 0-5.3722-0.19016-7.5059-0.45721-6.058-3.8863-6.9344zm11.964 21.375q1.7526-1.0287 2.9719-4.0768 1.2191-3.0862 1.1811-6.1723-0.03715-3.2005-1.2193-4.7626-0.99048-1.2954-1.8288 0.15237-0.95245 1.6764-1.0667 6.3248-0.03715 1.2954-0.07643 8.1536z"/>
  <path d="m120.34 57.104 0.26891 1.0558c1.1176 0.381 1.1883 1.1269 1.8232 2.5239 0.63496 1.397 0.47477 2.897 0.093 4.3448l-1.2137 4.9409c-0.66059 2.6417-1.8361 3.4544-1.9303 3.2836 0 0-0.41111 0.16006-0.79204-0.34804-0.38115-0.5334-0.6728-1.1428-0.87597-1.8286-0.17777-0.71121-0.36895-1.639-0.57214-2.7821l-1.7906-11.011-11.049 0.03862v0.83797c0.91441 0.2286 1.6763 0.59657 2.286 1.1046 0.60955 0.48261 1.0798 1.0928 1.4101 1.8294 0.33009 0.73661 0.59674 1.6511 0.7999 2.7433l1.1054 6.9338c0.0249 0.10147 0.0641 0.27932 0.11374 0.53332 0.12814 0.81283 0.2286 1.423 0.30467 1.8294 0.0764 0.4064 0.19015 0.96469 0.34352 1.6759 0.17775 0.68581 0.3429 1.2197 0.49523 1.6007 0.15302 0.35562 0.35532 0.77471 0.60934 1.2573 0.27946 0.48262 0.57192 0.85062 0.87659 1.1046 2.8447 2.1719 5.1047 0.41486 6.8813-2.0635-0.27945 0.86361-0.45473 2.2414-0.83566 3.5115-0.38115 1.2954-0.71125 2.3101-0.9907 3.1991-0.25403 0.91441-0.67755 1.9121-0.80466 2.217-0.47353 1.4171-1.0403 2.7815-2.1325 3.7975-0.92414 0.85564-2.5322 1.4586-3.7906 1.4596-2.7052-2.94e-4 -4.898-2.1623-4.8982-4.8293 0-0.98688 0.31294-1.9491 0.88754-2.7572 0 0 0.11162-0.1396 0.10753-0.1396 0.92164-1.2124 2.3668-1.9282 3.9036-1.9333 1.0173 4.91e-4 2.0091 0.31311 2.8379 0.89454-0.11783-0.14009-0.33257-0.358-0.74658-0.7271-0.88466-0.78889-1.8667-1.2573-3.0857-1.2573-0.22862 0-0.44502 0.01309-0.64821 0.03797-0.93982 0.10147-1.7654 0.39334-2.4766 0.87594-0.68581 0.48261-1.2063 1.0668-1.562 1.7527-0.33008 0.71121-0.55807 1.4739-0.68519 2.2867-0.1013 0.83823-0.0393 1.6631 0.19016 2.4759 0.22861 0.81283 0.57131 1.5622 1.0285 2.248 0.45741 0.68581 1.08 1.2574 1.8675 1.7147 0.81273 0.48261 1.7274 0.77517 2.7432 0.8767 1.6511 0.15237 3.2261-0.3689 4.7246-1.5627 1.4987-1.1938 2.6411-3.0605 3.4286-5.6005 0.20256-0.63503 0.7747-2.5276 1.7145-5.6773 0.96526-3.1243 1.7397-5.5878 2.3241-7.3912 0.0764-0.30482 0.16536-0.59652 0.26664-0.87594 0.1013-0.3556 0.19015-0.69925 0.26746-1.0294 0.63497-2.5655 1.0665-4.2922 1.2952-5.1812 0.2286-0.83818 0.40635-1.4861 0.53348-1.9433 0.12602-0.48258 0.32987-1.0542 0.60913-1.7147 0.30488-0.68581 0.60995-1.2189 0.91482-1.5999 0.3301-0.381 0.74928-0.73642 1.2573-1.0666 0.50785-0.3556 2.8013-1.4395 3.4617-1.541l-1.7092 0.05499z"/>
 </g>
</svg>
