<?xml version="1.0" encoding="UTF-8" standalone="no"?>
<svg
   enable-background="new 0 0 50 50"
   height="45.994511"
   id="Layer_1"
   version="1.1"
   viewBox="0 0 45.995014 45.994511"
   width="45.995014"
   xml:space="preserve"
   sodipodi:docname="price_icon.svg"
   inkscape:version="1.1.2 (0a00cf5339, 2022-02-04)"
   xmlns:inkscape="http://www.inkscape.org/namespaces/inkscape"
   xmlns:sodipodi="http://sodipodi.sourceforge.net/DTD/sodipodi-0.dtd"
   xmlns="http://www.w3.org/2000/svg"
   xmlns:svg="http://www.w3.org/2000/svg"><defs
     id="defs15" /><sodipodi:namedview
     id="namedview13"
     pagecolor="#ffffff"
     bordercolor="#666666"
     borderopacity="1.0"
     inkscape:pageshadow="2"
     inkscape:pageopacity="0.0"
     inkscape:pagecheckerboard="0"
     showgrid="false"
     fit-margin-top="0"
     fit-margin-left="0"
     fit-margin-right="0"
     fit-margin-bottom="0"
     inkscape:zoom="8.39"
     inkscape:cx="-2.8605483"
     inkscape:cy="14.481526"
     inkscape:window-width="1920"
     inkscape:window-height="1048"
     inkscape:window-x="1366"
     inkscape:window-y="32"
     inkscape:window-maximized="1"
     inkscape:current-layer="Layer_1" /><rect
     fill="none"
     height="50"
     width="50"
     id="rect2"
     x="-2.0059662"
     y="-1.9990567" /><circle
     cx="36.994034"
     cy="9.0009432"
     fill="none"
     r="3"
     stroke="#000000"
     stroke-linecap="round"
     stroke-miterlimit="10"
     stroke-width="2"
     id="circle4"
     style="stroke:#fef0eb;stroke-opacity:1" /><path
     d="m 44.994034,3.5009433 c 0,-1.381 -1.119,-2.5 -2.5,-2.5 -0.156,0 -14.876,0.002 -14.876,0.002 -1.33,0 -2.603,-0.07 -3.341,0.668 L 1.5480337,24.398943 c -0.739,0.738 -0.739,1.936 0,2.674 l 17.3740003,17.374 c 0.738,0.738 1.936,0.738 2.674,0 l 22.728,-22.729 c 0.738,-0.737 0.668,-1.98 0.668,-3.34 0,0 0.002,-14.7209997 0.002,-14.8769997 z"
     fill="none"
     stroke="#000000"
     stroke-linecap="round"
     stroke-miterlimit="10"
     stroke-width="2"
     id="path6"
     style="stroke:#fef0eb;stroke-opacity:1" /><path
     d="m 17.103034,25.444943 c 0.006,0.86 0.283,1.675 0.83,2.441 l 4.357,-4.357 c -0.438,-0.723 -0.783,-1.38 -1.035,-1.972 -0.254,-0.594 -0.4,-1.146 -0.445,-1.662 -0.043,-0.515 0.039,-1.008 0.248,-1.479 0.208,-0.472 0.553,-0.949 1.035,-1.432 0.493,-0.493 1.033,-0.857 1.619,-1.093 0.586,-0.236 1.181,-0.354 1.784,-0.354 0.603,0 1.197,0.117 1.784,0.354 0.586,0.235 1.131,0.573 1.636,1.011 l 1.085,-1.085 0.904,0.905 -1.102,1.102 c 0.778,0.997 1.156,2.032 1.135,3.106 -0.022,1.074 -0.406,2.204 -1.151,3.387 l -1.397,-1.397 c 0.865,-1.305 0.888,-2.554 0.066,-3.748 l -4.045,4.045 0.723,1.248 c 0.165,0.275 0.326,0.629 0.486,1.062 0.158,0.432 0.254,0.906 0.287,1.422 0.033,0.514 -0.035,1.049 -0.205,1.603 -0.17,0.554 -0.508,1.082 -1.012,1.586 -0.537,0.537 -1.104,0.924 -1.702,1.159 -0.597,0.236 -1.206,0.346 -1.824,0.329 -0.62,-0.017 -1.236,-0.156 -1.851,-0.419 -0.613,-0.264 -1.205,-0.636 -1.775,-1.117 l -1.348,1.348 -0.905,-0.904 1.348,-1.349 c -0.986,-1.206 -1.477,-2.458 -1.471,-3.757 0.005,-1.299 0.54,-2.568 1.603,-3.807 l 1.397,1.397 c -0.71,0.758 -1.064,1.567 -1.059,2.427 z m 2.746,4.029 c 0.346,0.17 0.697,0.266 1.061,0.287 0.361,0.022 0.723,-0.044 1.085,-0.197 0.361,-0.153 0.718,-0.405 1.069,-0.756 0.316,-0.318 0.528,-0.639 0.633,-0.963 0.104,-0.323 0.139,-0.654 0.106,-0.994 -0.033,-0.34 -0.13,-0.693 -0.288,-1.061 -0.158,-0.368 -0.343,-0.742 -0.551,-1.125 l -4.126,4.126 c 0.328,0.284 0.666,0.513 1.011,0.683 z m 5.845,-12.028 c -0.69,-0.044 -1.349,0.246 -1.973,0.871 -0.285,0.285 -0.482,0.576 -0.592,0.872 -0.11,0.295 -0.148,0.597 -0.116,0.903 0.033,0.308 0.115,0.625 0.247,0.954 0.132,0.329 0.296,0.669 0.493,1.019 l 3.848,-3.847 c -0.582,-0.471 -1.216,-0.729 -1.907,-0.772 z"
     id="path8"
     style="fill:#fef0eb;fill-opacity:1" /></svg>
